<svg xmlns="http://www.w3.org/2000/svg" width="24" height="32" overflow="visible"><g><g><path fill="#34B67A" d="M12 0C5.37 0 0 5.37 0 12v20l3-3 3 3 3-3 3 3 3-3 3 3 3-3 3 3V12c0-6.63-5.37-12-12-12z"/><path fill="#E6E6E6" d="M21.32 11.13C20.77 10.43 19.95 10 19 10c-1.66 0-3 1.34-3 3s1.34 3 3 3c.94 0 1.77-.45 2.33-1.13-.77-.27-1.33-1-1.33-1.87s.55-1.6 1.32-1.88z"/><path fill="#E6E6E6" d="M13.32 11.13C12.79 10.43 11.95 10 11 10c-1.66 0-3 1.34-3 3s1.34 3 3 3c.94 0 1.77-.45 2.33-1.13-.78-.27-1.33-1-1.33-1.87s.55-1.6 1.32-1.88z"/><path fill="#25374B" d="M22 13c0-.7-.26-1.36-.68-1.88-.77.28-1.32 1-1.32 1.88s.56 1.6 1.32 1.88c.42-.52.68-1.17.68-1.88z"/><path fill="#25374B" d="M14 13c0-.7-.26-1.36-.68-1.88-.77.28-1.32 1-1.32 1.88s.56 1.6 1.32 1.88c.42-.52.68-1.17.68-1.88z"/></g></g></svg>